<svg width="13" height="13" viewBox="0 0 13 13" fill="none" xmlns="http://www.w3.org/2000/svg">
<g id="bi:arrow-down-short">
<g id="Group">
<path id="Vector" fill-rule="evenodd" clip-rule="evenodd" d="M6.80104 9.52148C6.70158 9.52148 6.6062 9.48198 6.53587 9.41165C6.46555 9.34132 6.42604 9.24594 6.42604 9.14648L6.42604 4.80173L4.81654 6.41198C4.78167 6.44685 4.74028 6.47451 4.69473 6.49338C4.64917 6.51225 4.60035 6.52196 4.55104 6.52196C4.50173 6.52196 4.45291 6.51225 4.40735 6.49338C4.3618 6.47451 4.32041 6.44685 4.28554 6.41198C4.25067 6.37712 4.22302 6.33573 4.20415 6.29017C4.18528 6.24462 4.17557 6.19579 4.17557 6.14648C4.17557 6.09718 4.18528 6.04835 4.20415 6.0028C4.22302 5.95724 4.25067 5.91585 4.28554 5.88098L6.53554 3.63098C6.57037 3.59606 6.61176 3.56835 6.65732 3.54945C6.70287 3.53054 6.75171 3.52081 6.80104 3.52081C6.85037 3.52081 6.89921 3.53055 6.94477 3.54945C6.99032 3.56835 7.03171 3.59606 7.06654 3.63098L9.31654 5.88098C9.35141 5.91585 9.37906 5.95724 9.39793 6.0028C9.4168 6.04835 9.42651 6.09718 9.42651 6.14648C9.42651 6.19579 9.4168 6.24462 9.39793 6.29017C9.37906 6.33573 9.35141 6.37712 9.31654 6.41198C9.24613 6.4824 9.15062 6.52196 9.05104 6.52196C9.00173 6.52196 8.95291 6.51225 8.90735 6.49338C8.8618 6.47451 8.82041 6.44685 8.78554 6.41198L7.17604 4.80173L7.17604 9.14648C7.17604 9.24594 7.13653 9.34132 7.0662 9.41165C6.99588 9.48198 6.9005 9.52148 6.80104 9.52148Z" fill="#FF9138"/>
</g>
</g>
</svg>
