<svg width="13" height="13" viewBox="0 0 13 13" fill="none" xmlns="http://www.w3.org/2000/svg">
<g id="bi:arrow-down-short">
<g id="Group">
<path id="Vector" fill-rule="evenodd" clip-rule="evenodd" d="M6.80104 3.52148C6.70158 3.52148 6.6062 3.56099 6.53587 3.63132C6.46555 3.70165 6.42604 3.79703 6.42604 3.89648L6.42604 8.24124L4.81654 6.63098C4.78167 6.59612 4.74028 6.56846 4.69473 6.54959C4.64917 6.53072 4.60035 6.52101 4.55104 6.52101C4.50173 6.52101 4.45291 6.53072 4.40735 6.54959C4.3618 6.56846 4.32041 6.59612 4.28554 6.63098C4.25067 6.66585 4.22302 6.70724 4.20415 6.7528C4.18528 6.79835 4.17557 6.84718 4.17557 6.89648C4.17557 6.94579 4.18528 6.99462 4.20415 7.04017C4.22302 7.08573 4.25067 7.12712 4.28554 7.16198L6.53554 9.41198C6.57037 9.44691 6.61176 9.47461 6.65732 9.49352C6.70287 9.51242 6.75171 9.52216 6.80104 9.52216C6.85037 9.52216 6.89921 9.51242 6.94477 9.49352C6.99032 9.47461 7.03171 9.44691 7.06654 9.41198L9.31654 7.16198C9.35141 7.12712 9.37906 7.08573 9.39793 7.04017C9.4168 6.99462 9.42651 6.94579 9.42651 6.89648C9.42651 6.84718 9.4168 6.79835 9.39793 6.7528C9.37906 6.70724 9.35141 6.66585 9.31654 6.63098C9.24613 6.56057 9.15062 6.52101 9.05104 6.52101C9.00173 6.52101 8.95291 6.53072 8.90735 6.54959C8.8618 6.56846 8.82041 6.59612 8.78554 6.63098L7.17604 8.24123L7.17604 3.89648C7.17604 3.79703 7.13653 3.70165 7.0662 3.63132C6.99588 3.56099 6.9005 3.52148 6.80104 3.52148Z" fill="#E73F3F"/>
</g>
</g>
</svg>
